<svg height="37" viewBox="0 0 44 37" width="44" xmlns="http://www.w3.org/2000/svg"><g style="stroke:#fff;stroke-width:1.5625;fill:none;fill-rule:evenodd;stroke-linecap:round;stroke-linejoin:round" transform="translate(-3 -7)"><path d="m46.09375 16.40625h-42.1875z"/><path d="m43.75 8.59375h-37.5c-1.29453125 0-2.34375 1.04921875-2.34375 2.34375v29.6875c0 1.2945312 1.04921875 2.34375 2.34375 2.34375h37.5c1.2945313 0 2.34375-1.0492188 2.34375-2.34375v-29.6875c0-1.29453125-1.0492187-2.34375-2.34375-2.34375z"/><path d="m41.40625 12.5c0 .4320312-.3492188.78125-.78125.78125s-.78125-.3492188-.78125-.78125.3492188-.78125.78125-.78125.78125.3492188.78125.78125z"/><path d="m36.71875 12.5c0 .4320312-.3492188.78125-.78125.78125s-.78125-.3492188-.78125-.78125.3492188-.78125.78125-.78125.78125.3492188.78125.78125z"/><path d="m32.03125 12.5c0 .4320312-.3492188.78125-.78125.78125s-.78125-.3492188-.78125-.78125.3492188-.78125.78125-.78125.78125.3492188.78125.78125z"/><path d="m19.53125 25.78125-4.6875 3.90625 4.6875 3.90625"/><path d="m30.46875 25.78125 4.6875 3.90625-4.6875 3.90625"/><path d="m22.65625 36.71875 4.6875-14.0625z"/></g></svg>