<svg height="37" width="44" xmlns="http://www.w3.org/2000/svg"><g stroke="#fff" stroke-width="1.563" fill="none" fill-rule="evenodd" stroke-linecap="round" stroke-linejoin="round"><path d="M43.094 9.406H.906zM40.75 1.594H3.25A2.344 2.344 0 0 0 .906 3.937v29.688a2.344 2.344 0 0 0 2.344 2.344h37.5a2.344 2.344 0 0 0 2.344-2.344V3.937a2.344 2.344 0 0 0-2.344-2.343z"/><path d="M38.406 5.5a.78.78 0 1 1-1.56.001.78.78 0 0 1 1.56-.001zm-4.687 0a.78.78 0 1 1-1.561.001.78.78 0 0 1 1.56-.001zm-4.688 0a.78.78 0 1 1-1.56.001.78.78 0 0 1 1.56-.001zm-12.5 13.281l-4.687 3.907 4.687 3.906m10.938-7.813l4.687 3.907-4.687 3.906m-7.813 3.125l4.688-14.063z"/></g></svg>