<svg width="44" height="42" xmlns="http://www.w3.org/2000/svg"><g fill="#FFF"><path d="M43.828 32.445c0-.008-.008-.008-.008-.015a.53.53 0 0 0-.101-.157c-.024-.03-.04-.07-.063-.101-.039-.04-.086-.063-.125-.094-.039-.023-.07-.062-.117-.078-.039-.016-.086-.016-.125-.031a.665.665 0 0 0-.172-.032h-.015c-.047 0-.094.016-.141.032-.047.008-.094.008-.133.023l-1.273.469-1.14-.734a.786.786 0 0 0-.696-.079l-1.274.47-1.14-.735a.783.783 0 0 0-.696-.078l-1.273.468-1.14-.734a.786.786 0 0 0-.696-.078l-1.273.469-1.141-.735a.786.786 0 0 0-.695-.078l-1.274.469-1.14-.734a.786.786 0 0 0-.696-.079l-1.273.47-1.14-.735a.75.75 0 0 0-.563-.11l-.227.04 15.93-15.93A7.648 7.648 0 0 0 42.312 8.5a7.76 7.76 0 0 0-2.289-5.523A7.76 7.76 0 0 0 34.5.687c-1.71 0-3.328.555-4.672 1.563H13.406c-8 0-12.797 3.922-13 4.086a.775.775 0 0 0-.281.601c0 .235.102.454.281.602.203.164 5 4.086 13 4.086h6.922L3.977 27.977a7.76 7.76 0 0 0-2.29 5.523 7.76 7.76 0 0 0 2.29 5.523 7.76 7.76 0 0 0 5.523 2.29c1.71 0 3.328-.555 4.672-1.563h28.922c.43 0 .781-.352.781-.781v-6.25c0-.047-.016-.094-.031-.14-.008-.04 0-.087-.016-.134zM13.406 10.062c-5.554 0-9.5-2.07-11.14-3.124 1.648-1.055 5.593-3.125 11.14-3.125h14.735l-6.25 6.25h-8.485zm-8.328 27.86A6.21 6.21 0 0 1 3.25 33.5a6.21 6.21 0 0 1 1.828-4.422l17.68-17.68 7.312-7.312A6.217 6.217 0 0 1 34.5 2.25a6.21 6.21 0 0 1 4.422 1.828A6.21 6.21 0 0 1 40.75 8.5a6.21 6.21 0 0 1-1.828 4.422l-25 25A6.21 6.21 0 0 1 9.5 39.75a6.21 6.21 0 0 1-4.422-1.828zm10.781.266l6.305-6.305 2.125-.375 1.211.781c.21.133.469.164.695.078l1.274-.469 1.14.735a.783.783 0 0 0 .696.078l1.273-.469 1.14.735a.79.79 0 0 0 .696.078l1.273-.47 1.141.735a.783.783 0 0 0 .695.078l1.274-.468 1.14.734c.211.133.47.164.696.078l1.273-.469 1.14.735a.741.741 0 0 0 .423.125.805.805 0 0 0 .273-.047l.57-.242v4.343H15.86z"/><path d="M33.719 11.625a2.35 2.35 0 0 0 2.343-2.344 2.35 2.35 0 0 0-2.343-2.344 2.35 2.35 0 0 0-2.344 2.344 2.35 2.35 0 0 0 2.344 2.344zm0-3.125c.43 0 .781.352.781.781 0 .43-.352.781-.781.781a.784.784 0 0 1-.782-.78c0-.43.352-.782.782-.782zM14.188 34.281a.778.778 0 0 0 .555-1.328l-1.798-1.797 1.79-1.789a.778.778 0 1 0-1.102-1.101l-1.79 1.789-1.788-1.79a.778.778 0 1 0-1.102 1.102l1.79 1.79-1.79 1.788a.778.778 0 0 0 0 1.102.745.745 0 0 0 .547.234.8.8 0 0 0 .555-.226l1.789-1.797 1.789 1.789a.775.775 0 0 0 .555.234z"/></g></svg>